<?xml version="1.0" encoding="UTF-8" standalone="no"?>
<!-- Created with Inkscape (http://www.inkscape.org/) -->

<svg
   version="1.1"
   id="svg35162"
   xml:space="preserve"
   width="800"
   height="800"
   viewBox="0 0 800 800"
   sodipodi:docname="girl-silhouette-12-publicdomainvectors.org (2).svg"
   inkscape:version="1.1.2 (b8e25be833, 2022-02-05)"
   xmlns:inkscape="http://www.inkscape.org/namespaces/inkscape"
   xmlns:sodipodi="http://sodipodi.sourceforge.net/DTD/sodipodi-0.dtd"
   xmlns="http://www.w3.org/2000/svg"
   xmlns:svg="http://www.w3.org/2000/svg"><defs
     id="defs35166"><clipPath
       clipPathUnits="userSpaceOnUse"
       id="clipPath35176"><path
         d="M 0,600 H 600 V 0 H 0 Z"
         id="path35174" /></clipPath></defs><sodipodi:namedview
     id="namedview35164"
     pagecolor="#ffffff"
     bordercolor="#666666"
     borderopacity="1.0"
     inkscape:pageshadow="2"
     inkscape:pageopacity="0.0"
     inkscape:pagecheckerboard="0"
     showgrid="false"
     inkscape:zoom="1.03875"
     inkscape:cx="400"
     inkscape:cy="400"
     inkscape:window-width="1920"
     inkscape:window-height="1018"
     inkscape:window-x="-8"
     inkscape:window-y="-8"
     inkscape:window-maximized="1"
     inkscape:current-layer="g35168" /><g
     id="g35168"
     inkscape:groupmode="layer"
     inkscape:label="girl-silhouette-12-publicdomainvectors.org (2)"
     transform="matrix(1.3333333,0,0,-1.3333333,0,800)"><g
       id="g35170"><g
         id="g35172"
         clip-path="url(#clipPath35176)"><path
           d="m 348.753,574.329 c -6.509,4.883 -23.445,3.69 -43.712,-1.721 l 41.688,-3.305 4.854,1.613 c -0.891,1.56 -1.895,2.71 -2.83,3.413"
           style="fill:#ff214f;fill-opacity:1;fill-rule:nonzero;stroke:none"
           id="path35178" /><path
           d="m 387.306,244.745 c 1.874,1.922 4.108,4.166 6.423,7.447 l -15.203,-4.985 z"
           style="fill:#ffc8ff;fill-opacity:1;fill-rule:nonzero;stroke:none"
           id="path35180" /><path
           d="m 382.416,237.177 c 0.577,3.061 2.42,5.037 4.89,7.568 l -8.78,2.462 z"
           style="fill:#ffc5ff;fill-opacity:1;fill-rule:nonzero;stroke:none"
           id="path35182" /><path
           d="m 348.523,540.32 c 7.985,14.231 6.244,25.024 3.06,30.596 l -4.854,-1.613 z"
           style="fill:#ff2a4f;fill-opacity:1;fill-rule:nonzero;stroke:none"
           id="path35184" /><path
           d="m 416.932,298.022 c -12.09,8.36 -39.544,24.492 -57.923,33.274 l 19.517,-84.089 z"
           style="fill:#ffb1a6;fill-opacity:1;fill-rule:nonzero;stroke:none"
           id="path35186" /><path
           d="m 393.729,252.192 c 1.027,1.456 2.069,3.115 3.103,5.042 10.775,20.083 16.725,17.637 25.883,31.545 0.99,1.509 1.082,3.502 -0.115,4.826 -0.825,0.91 -2.822,2.449 -5.668,4.417 l -38.406,-50.815 z"
           style="fill:#ffc3e2;fill-opacity:1;fill-rule:nonzero;stroke:none"
           id="path35188" /><path
           d="m 351.874,415.681 c 5.933,0.3 27.035,6.318 37.159,10.765 2.8,1.226 1.902,0.99 9.723,7.711 4.596,3.963 -5.023,4.101 -7.13,3.894 -14.68,-1.444 -28.646,3.136 -41.279,10.798 L 346.71,414.57 c 1.738,0.519 3.384,1.025 5.164,1.111"
           style="fill:#ff6b62;fill-opacity:1;fill-rule:nonzero;stroke:none"
           id="path35190" /><path
           d="m 375.069,214.871 c 0.654,0.632 1.153,1.383 1.432,2.262 1.123,3.536 2.839,6.831 4.112,10.309 1.014,2.776 1.624,1.382 1.614,7.544 -0.003,0.794 0.063,1.519 0.189,2.191 l -3.89,10.03 z"
           style="fill:#ffc3ff;fill-opacity:1;fill-rule:nonzero;stroke:none"
           id="path35192" /><path
           d="m 325.462,352.835 c -1.647,0.688 -3.45,2.014 -4.811,3.16 l -49.596,-78.582 107.471,-30.206 -19.517,84.089 c -4.702,2.246 -8.81,4.013 -11.914,5.044 -2.8,0.933 -3.152,2.085 -4.85,3.669 -1.417,1.324 1.036,15.694 -0.103,21.471 -1.232,6.228 -2.116,16.81 -2.628,24.4 l -13.759,-21.798 c -0.324,-10.015 1.072,-11.822 -0.293,-11.247"
           style="fill:#ffad9c;fill-opacity:1;fill-rule:nonzero;stroke:none"
           id="path35194" /><path
           d="m 258.201,227.737 c 0.227,-0.809 0.456,-1.625 0.688,-2.449 6.367,-22.634 9.339,-21.023 4.911,-66.646 l 37.821,-1.315 c 0.192,10.385 -0.142,1.641 -1.822,19.842 -0.288,3.133 -0.646,2.292 2.165,3.393 0.875,0.345 1.325,0.535 1.964,-0.006 2.833,-2.397 7.135,-6.842 18.723,0.172 5.347,3.236 10.553,7.848 15.255,12.849 l -66.851,83.836 z"
           style="fill:#ffb0e5;fill-opacity:1;fill-rule:nonzero;stroke:none"
           id="path35196" /><path
           d="m 271.055,277.413 66.851,-83.836 c 3.585,3.813 6.877,7.85 9.712,11.674 4.476,6.042 1.491,9.071 17.595,7.027 3.239,-0.409 7.525,0.333 9.856,2.593 l 3.457,32.336 z"
           style="fill:#ffbee7;fill-opacity:1;fill-rule:nonzero;stroke:none"
           id="path35198" /><path
           d="m 273.711,481.476 c 1.504,-1.055 2.569,-3.51 2.601,-8.973 0.474,-6.733 -6.793,-7.441 -17.56,-9.019 l -2.96,-3.56 63.538,7.708 c -3.559,-0.157 -8.049,-0.228 -13.858,0.304 -7.62,0.697 -7.759,5.063 -9.44,9.076 -3.094,7.401 -2.558,10.327 -2.086,14.093 0.34,2.754 14.329,10.391 20.781,14.964 17.896,12.69 28.219,24.309 33.796,34.251 l -1.794,28.983 z"
           style="fill:#ff384f;fill-opacity:1;fill-rule:nonzero;stroke:none"
           id="path35200" /><path
           d="m 263.479,155.393 c -0.295,-2.945 -0.679,-6.558 -1.021,-10.415 l 37.671,-24.864 c 0.766,8.808 1.299,17.865 1.299,27.107 0.085,4.621 0.151,7.824 0.193,10.106 l -37.821,1.315 c -0.104,-1.058 -0.21,-2.14 -0.321,-3.249"
           style="fill:#ffaff6;fill-opacity:1;fill-rule:nonzero;stroke:none"
           id="path35202" /><path
           d="m 320.651,355.995 c -0.894,0.753 -1.601,1.43 -1.938,1.793 -0.831,0.888 -9.256,4.51 -8.514,20.745 0.083,1.803 0.547,4.195 1.22,6.844 l -50.223,-12.766 c -1.042,-10.353 -4.855,-15.613 -6.517,-18.67 -7.823,-14.397 -12.861,-23.026 -14.74,-33.033 l 31.116,-43.495 z"
           style="fill:#ff8a69;fill-opacity:1;fill-rule:nonzero;stroke:none"
           id="path35204" /><path
           d="m 325.957,368.12 c -0.099,-1.478 -0.162,-2.816 -0.202,-4.038 l 13.759,21.798 c -0.179,2.648 -0.313,4.93 -0.4,6.537 l -13.223,-3.361 c 0.428,-7.727 0.425,-15.521 0.066,-20.936"
           style="fill:#ff8a69;fill-opacity:1;fill-rule:nonzero;stroke:none"
           id="path35206" /><path
           d="m 267.396,482.006 c 2.051,-0.019 4.502,0.741 6.315,-0.53 l 73.018,87.827 -41.688,3.305 c -18.776,-5.012 -40.41,-13.645 -59.268,-24.422 l 7.857,-69.208 c 7.49,1.618 13.393,3.032 13.766,3.028"
           style="fill:#ff2c4f;fill-opacity:1;fill-rule:nonzero;stroke:none"
           id="path35208" /><path
           d="m 255.792,459.924 2.96,3.56 c -1.069,-0.156 -2.173,-0.322 -3.307,-0.503 z"
           style="fill:#ff2c4f;fill-opacity:1;fill-rule:nonzero;stroke:none"
           id="path35210" /><path
           d="m 257.018,23.106 c -1.566,-1.699 0.933,-4.395 1.625,-6.381 0.264,-0.754 5.517,-2.397 6.116,-1.994 1.463,0.986 3.097,1.534 4.791,1.964 0,0 2.039,1.176 2.713,1.463 1.561,0.693 7.458,7.188 15.924,2.339 1.82,-1.049 3.842,-0.518 6.267,-2.339 1.324,-1.002 6.07,-3.15 7.723,-1.774 1.169,0.969 1.745,2.501 2.621,3.762 -0.127,2.637 -0.992,2.655 -2.558,4.394 -1.52,1.693 -2.372,4.371 -3.178,6.479 -2.057,5.377 -3.254,11.22 -3.842,17.469 L 257.155,23.259 c -0.045,-0.051 -0.087,-0.1 -0.137,-0.153"
           style="fill:#ff89f6;fill-opacity:1;fill-rule:nonzero;stroke:none"
           id="path35212" /><path
           d="m 270.655,64.452 c -0.586,-6.831 -2.775,-13.178 -4.042,-19.823 -1.302,-6.819 -0.708,-14.617 -7.165,-18.857 -1.588,-1.04 -1.202,-1.286 -2.293,-2.513 l 38.065,25.229 c -1.117,11.86 -0.042,25.185 1.51,39.586 l -27.6,1.039 c 1.367,-10.156 1.95,-19.721 1.525,-24.661"
           style="fill:#ff8ae3;fill-opacity:1;fill-rule:nonzero;stroke:none"
           id="path35214" /><path
           d="m 263.019,116.978 c 2.658,-7.292 4.764,-17.866 6.111,-27.865 l 27.6,-1.039 c 1.098,10.188 2.433,20.914 3.399,32.04 l -37.671,24.864 c -0.913,-10.263 -1.536,-22.257 0.561,-28"
           style="fill:#ff99e2;fill-opacity:1;fill-rule:nonzero;stroke:none"
           id="path35216" /><path
           d="m 338.976,397.91 c -0.143,11.923 -1.214,10.322 1.288,14.403 0.242,0.385 0.495,1.012 1.624,1.145 1.774,0.212 3.332,0.667 4.822,1.112 l 3.637,34.279 c -4.05,2.456 -7.964,5.226 -11.719,8.219 -2.056,1.641 -3.329,4.245 -4.654,6.503 -3.097,5.267 -6.328,4.429 -14.644,4.061 l -63.538,-7.708 z"
           style="fill:#ff554f;fill-opacity:1;fill-rule:nonzero;stroke:none"
           id="path35218" /><path
           d="m 225.421,390.816 c 1.351,2.416 3.182,6.302 6.186,12.788 6.571,14.174 3.065,7.584 7.742,14.265 0.345,0.497 0.443,1.285 0.996,1.486 0.651,0.237 1.14,-0.494 1.716,-0.759 3.231,-1.481 6.26,-3.398 9.669,-4.527 1.412,-0.461 0.26,0.403 7.505,-20.636 1.895,-5.501 2.402,-11.611 2.188,-17.479 -0.043,-1.171 -0.12,-2.283 -0.227,-3.343 l 50.223,12.766 c 2.141,8.438 6.399,19.496 7.224,22.529 0.76,2.81 4.262,3.116 4.884,0.473 1.201,-5.097 1.966,-12.181 2.364,-19.323 l 13.223,3.361 c -0.082,1.502 -0.124,2.416 -0.124,2.484 0.003,1.09 -0.004,2.088 -0.014,3.009 l -83.184,62.014 z"
           style="fill:#ff644f;fill-opacity:1;fill-rule:nonzero;stroke:none"
           id="path35220" /><path
           d="m 252.391,462.465 3.401,-2.541 -0.347,3.057 c -0.995,-0.158 -2.014,-0.329 -3.054,-0.516"
           style="fill:#ff1f4f;fill-opacity:1;fill-rule:nonzero;stroke:none"
           id="path35222" /><path
           d="m 253.63,478.978 -7.857,69.208 c -22.93,-13.107 -41.747,-29.383 -46.317,-46.176 l 35.627,-26.614 c 5.902,0.935 12.706,2.32 18.547,3.582"
           style="fill:#ff1f4f;fill-opacity:1;fill-rule:nonzero;stroke:none"
           id="path35224" /><path
           d="m 203.122,464.533 c 1.376,3.893 5.327,6.496 6.738,12.67 0.288,1.244 1.065,2.292 1.486,3.485 0.127,0.362 0.392,0.454 0.783,0.328 1.791,-0.553 1.814,-0.657 0.403,-2.713 -0.697,-1.008 -2.142,-2.011 9.93,-3.882 2.419,-0.375 7.129,0.105 12.621,0.975 l -35.627,26.614 c -0.789,-2.899 -1.158,-5.812 -1.046,-8.727 0.058,-1.52 0.254,-3.053 0.041,-4.556 -0.824,-5.742 -7.632,-2.528 -4.418,-26.256 0.113,-0.829 0.203,-1.622 0.279,-2.401 l 8.035,-0.018 c 0.132,1.665 0.446,3.555 0.775,4.481"
           style="fill:#ff1e4f;fill-opacity:1;fill-rule:nonzero;stroke:none"
           id="path35226" /><path
           d="m 244.912,460.857 c -0.697,-0.178 -1.4,-0.436 -2.15,-0.901 l 13.03,-0.032 -3.401,2.541 c -2.396,-0.43 -4.9,-0.947 -7.479,-1.608"
           style="fill:#ff1e4f;fill-opacity:1;fill-rule:nonzero;stroke:none"
           id="path35228" /><path
           d="m 244.654,277.558 c 3.128,-12.684 7.613,-28.726 13.547,-49.821 l 12.854,49.676 z"
           style="fill:#ff899e;fill-opacity:1;fill-rule:nonzero;stroke:none"
           id="path35230" /><path
           d="m 239.939,320.908 c -1.943,-10.345 -0.508,-22.164 4.715,-43.35 l 26.401,-0.145 z"
           style="fill:#ff7b64;fill-opacity:1;fill-rule:nonzero;stroke:none"
           id="path35232" /><path
           d="m 242.762,459.956 c -1.694,-1.052 -3.634,-3.167 -6.311,-7.852 -1.618,-2.829 -2.61,-1.337 -4.314,-6.088 -3.91,-10.868 -8.305,-10.431 -6.732,-17.296 0.471,-2.067 2.626,-1.486 2.62,-4.055 -0.011,-3.685 -1.808,-2.942 -3.877,-8.229 -0.304,-0.784 -0.633,-1.561 -1.047,-2.298 -4.349,-7.821 -12.065,9.571 -13.253,12.716 -3.68,9.734 -4.526,19.317 -6.68,24.524 -0.911,2.188 0.034,2.718 -0.783,5.944 -0.136,0.546 -0.13,1.586 -0.038,2.73 l -8.035,0.018 c 0.456,-4.68 0.377,-8.775 1.518,-16.341 0.968,-6.427 11.773,-54.61 16.253,-59.148 2.413,-2.454 6.543,0.835 9.014,1.808 1.637,0.646 2.583,1.317 4.324,4.427 l 30.371,69.108 z"
           style="fill:#ff474f;fill-opacity:1;fill-rule:nonzero;stroke:none"
           id="path35234" /></g></g></g></svg>
